<?xml version="1.0" standalone="no"?>
<!DOCTYPE svg PUBLIC "-//W3C//DTD SVG 20010904//EN"
 "http://www.w3.org/TR/2001/REC-SVG-20010904/DTD/svg10.dtd">
<svg version="1.0" xmlns="http://www.w3.org/2000/svg"
 width="46.000000pt" height="39.000000pt" viewBox="0 0 46.000000 39.000000"
 preserveAspectRatio="xMidYMid meet">
<metadata>
Created by potrace 1.16, written by Peter Selinger 2001-2019
</metadata>
<g transform="translate(0.000000,39.000000) scale(0.100000,-0.100000)"
fill="#000000" stroke="none">
<path d="M77 365 c-10 -14 -23 -25 -30 -25 -25 0 -47 -40 -47 -85 0 -46 22
-85 47 -85 7 0 13 -11 13 -24 0 -13 3 -31 6 -40 4 -12 0 -16 -15 -16 -17 0
-21 -6 -21 -33 0 -45 16 -57 74 -57 60 1 86 17 86 54 0 24 3 26 40 26 37 0 40
-2 40 -26 0 -37 26 -53 85 -53 61 0 85 16 85 58 0 28 -3 31 -30 31 -16 0 -30
5 -30 10 0 6 7 10 15 10 10 0 15 10 15 30 0 20 5 30 15 30 8 0 15 7 15 15 0 8
5 15 10 15 6 0 10 25 10 55 0 30 -4 55 -10 55 -5 0 -10 7 -10 15 0 10 -10 15
-30 15 -25 0 -30 4 -30 25 0 23 -4 25 -40 25 -22 0 -40 -4 -40 -10 0 -5 -7
-10 -15 -10 -10 0 -15 -10 -15 -30 0 -28 -2 -30 -40 -30 -38 0 -40 2 -40 30 0
20 -5 30 -15 30 -8 0 -15 5 -15 10 0 6 -15 10 -32 10 -23 -1 -38 -8 -51 -25z
m63 0 c0 -8 7 -15 15 -15 10 0 15 -11 15 -35 l0 -35 60 0 60 0 0 35 c0 23 5
35 14 35 8 0 16 7 20 15 3 8 10 15 16 15 5 0 10 -7 10 -15 0 -8 -7 -15 -15
-15 -28 0 -18 -54 15 -80 16 -14 29 -31 30 -37 0 -7 7 -13 15 -13 8 0 15 -4
15 -9 0 -5 -7 -11 -15 -15 -8 -3 -15 -17 -15 -31 0 -14 -4 -25 -10 -25 -5 0
-10 4 -10 9 0 4 -10 7 -22 5 -13 -2 -76 -5 -141 -7 -116 -2 -117 -2 -117 21 0
12 -7 25 -15 28 -19 8 -19 24 0 24 8 0 15 7 15 15 0 8 7 15 15 15 8 0 15 6 15
14 0 8 7 16 15 20 9 3 15 18 15 36 0 20 -5 30 -15 30 -8 0 -15 7 -15 15 0 8 7
15 15 15 8 0 15 -7 15 -15z"/>
</g>
</svg>
